<?xml version="1.0" standalone="no"?>
<!DOCTYPE svg PUBLIC "-//W3C//DTD SVG 20010904//EN"
 "http://www.w3.org/TR/2001/REC-SVG-20010904/DTD/svg10.dtd">
<svg version="1.0" xmlns="http://www.w3.org/2000/svg"
 width="1024.000000pt" height="1024.000000pt" viewBox="0 0 1024.000000 1024.000000"
 preserveAspectRatio="xMidYMid meet">
<metadata>
Created by potrace 1.14, written by Peter Selinger 2001-2017
</metadata>
<g transform="translate(0.000000,1024.000000) scale(0.100000,-0.100000)"
fill="#000000" stroke="none">
<path d="M4865 9053 c-594 -284 -926 -440 -1565 -741 -309 -145 -450 -215
-450 -223 0 -6 54 -27 520 -199 442 -165 525 -198 521 -212 -1 -7 -16 -58 -31
-113 -16 -55 -37 -139 -47 -187 -9 -49 -22 -88 -28 -88 -15 0 -416 -48 -464
-56 -34 -5 -42 -4 -47 12 -77 222 -180 351 -348 433 -116 58 -196 74 -336 68
-94 -3 -129 -9 -195 -33 -259 -95 -425 -327 -425 -595 0 -209 121 -418 309
-534 l61 -38 0 -982 0 -982 83 -5 c75 -5 95 -1 232 38 83 23 202 59 265 79 63
19 123 38 133 41 16 5 17 -17 17 -360 l0 -365 -30 -3 c-28 -3 -20 -9 75 -62
58 -32 123 -60 143 -63 48 -6 99 27 127 82 19 38 20 60 20 465 0 419 0 426
-23 481 -32 81 -92 146 -149 162 l-46 14 139 47 c184 62 368 152 425 208 24
24 59 71 77 105 58 111 62 146 62 680 0 508 -3 556 -45 617 -13 19 -21 37 -19
40 2 3 1 4 -3 1 -8 -6 -34 15 -29 24 3 4 -3 8 -12 9 -9 1 -44 6 -77 11 -33 5
-91 10 -130 10 l-70 0 39 -19 c56 -28 85 -58 110 -110 20 -43 21 -61 24 -495
2 -310 0 -469 -8 -510 -34 -176 -168 -326 -378 -422 -70 -32 -155 -61 -606
-207 -77 -25 -142 -43 -145 -40 -3 3 -7 386 -9 851 -2 772 -1 845 14 839 8 -3
28 -6 43 -6 23 0 33 -9 57 -52 l29 -53 3 -662 c3 -749 -7 -677 87 -644 l50 18
3 685 2 686 85 7 c61 5 85 11 85 21 0 11 -24 12 -127 7 -367 -17 -571 73 -643
281 -37 111 -20 243 46 342 64 96 159 156 277 177 124 21 264 -26 373 -126 97
-88 139 -180 150 -330 l7 -84 -43 -7 c-23 -4 -40 -9 -38 -12 5 -5 133 13 428
61 281 45 402 31 537 -64 74 -52 128 -117 166 -198 22 -48 22 -52 25 -628 4
-701 3 -710 -104 -872 -68 -102 -132 -152 -207 -162 l-52 -6 43 -18 c63 -25
175 -102 216 -147 46 -51 73 -104 91 -182 12 -52 15 -175 15 -720 l0 -656 -30
11 c-16 6 -32 8 -36 4 -9 -9 -56 22 376 -242 206 -125 435 -266 508 -313 l133
-84 27 24 c52 48 393 277 815 547 l84 54 4 621 c2 341 2 1134 -1 1761 l-5
1140 -29 59 c-28 57 -98 137 -160 184 -16 12 -27 24 -25 26 4 4 126 -13 789
-114 504 -77 676 -110 762 -145 129 -52 263 -166 313 -265 47 -94 49 -124 50
-640 0 -477 0 -486 -23 -565 -13 -44 -34 -98 -47 -120 -84 -145 -237 -239
-436 -268 -74 -10 -82 -10 -126 12 l-48 23 38 -40 38 -39 2 -514 c2 -563 1
-581 -56 -698 -35 -71 -108 -157 -173 -201 -23 -16 -145 -90 -271 -163 -285
-167 -334 -197 -497 -306 -149 -100 -579 -420 -801 -597 -83 -65 -167 -131
-187 -147 l-37 -27 -128 93 c-70 51 -225 165 -343 253 -354 264 -624 446 -890
603 -308 180 -368 214 -519 295 -384 208 -560 268 -781 269 -205 1 -319 -58
-394 -205 -51 -99 -59 -183 -27 -286 52 -174 206 -272 406 -259 218 13 576
-105 842 -278 85 -56 102 -76 47 -55 -31 12 -426 122 -530 148 l-60 15 -95
-70 c-52 -38 -136 -97 -187 -132 -50 -35 -92 -67 -92 -72 0 -15 230 -248 390
-394 305 -281 633 -523 970 -717 508 -292 992 -501 1249 -538 132 -20 313 -8
446 29 341 94 862 342 1290 613 338 215 725 537 1051 877 103 107 130 139 122
145 -1 1 -37 23 -78 48 -41 26 -124 83 -184 127 -60 45 -113 81 -119 81 -5 0
-55 -13 -111 -29 -297 -86 -499 -141 -503 -137 -17 17 243 168 387 226 212 85
371 120 545 118 92 -1 119 2 168 21 89 35 149 89 190 170 98 196 26 421 -165
515 -112 55 -259 57 -501 8 l-87 -18 2 503 3 504 75 25 c121 41 189 82 272
166 61 61 86 96 122 170 89 182 99 270 93 861 -3 409 -5 448 -25 523 -25 97
-34 119 -86 208 -114 196 -314 326 -601 391 -117 27 -419 74 -634 100 -112 14
-205 26 -207 28 -2 1 -10 47 -18 102 -8 55 -35 171 -60 257 -65 228 -113 317
-240 443 -39 39 -69 74 -68 78 1 5 -2 6 -7 3 -5 -4 -38 12 -72 34 -47 30 -58
41 -45 46 10 4 22 2 29 -5 6 -6 16 -11 21 -11 6 0 0 7 -13 16 -18 13 -28 14
-47 6 -18 -9 -27 -8 -39 4 -8 9 -15 13 -15 9 0 -3 -12 1 -27 9 -42 23 -231
101 -290 121 -29 9 -53 19 -53 22 0 3 6 3 13 0 8 -3 14 0 14 7 0 8 -9 11 -22
8 -13 -2 -26 2 -30 9 -6 8 -4 10 6 4 10 -6 11 -5 3 4 -6 7 -22 13 -35 15 -14
1 -30 6 -37 10 -7 4 -12 4 -12 1 0 -4 -7 1 -16 10 -11 11 -25 14 -41 10 -14
-3 -22 -2 -19 3 3 6 -3 12 -15 15 -17 5 -18 3 -7 -11 8 -10 0 -7 -19 6 -34 24
-73 73 -73 91 0 6 102 -25 228 -68 466 -161 625 -243 773 -398 102 -107 169
-232 193 -361 11 -57 15 -66 32 -64 10 2 213 78 449 169 237 90 444 170 462
176 17 7 33 16 35 21 3 9 -136 78 -518 255 -155 72 -376 177 -794 376 -736
350 -868 412 -925 435 -15 6 -81 -21 -260 -107z m311 -279 c46 -22 84 -69 84
-105 0 -26 -3 -29 -32 -29 -26 0 -37 6 -50 29 -23 42 -83 59 -127 37 -17 -9
-39 -32 -47 -50 -17 -35 -12 -56 36 -133 27 -44 12 -41 -41 8 -24 22 -37 38
-29 34 12 -5 12 -4 -1 7 -57 47 -18 167 66 204 41 18 100 17 141 -2z m-42
-164 c17 -30 74 -100 127 -155 l98 -100 -30 -18 -31 -17 -57 44 c-82 63 -129
119 -162 193 -32 73 -34 84 -17 101 22 22 42 8 72 -48z m310 -301 c19 -15 26
-30 26 -54 0 -44 -18 -58 -59 -44 -24 9 -35 8 -47 -2 -13 -10 -17 -10 -25 2
-22 35 -4 94 34 109 33 13 42 12 71 -11z m-156 -116 c6 -20 10 -38 9 -39 -1
-1 -40 -7 -87 -12 l-85 -9 84 -2 84 -1 -7 -32 c-3 -17 -8 -33 -10 -36 -2 -2
-35 -7 -73 -11 l-68 -8 68 -2 68 -1 -3 -32 c-3 -31 -6 -33 -48 -39 l-45 -5 43
-9 c43 -8 46 -13 36 -52 -5 -20 -14 -23 -58 -25 l-51 -2 53 -3 c52 -4 52 -4
52 -38 0 -37 -5 -39 -75 -48 -17 -2 -6 -5 23 -6 l53 -1 -3 -32 c-3 -32 -5 -33
-58 -39 -49 -5 -51 -6 -14 -7 49 -2 132 -26 159 -45 17 -13 8 -16 -86 -24
l-104 -10 120 -2 c66 -1 154 -4 195 -7 41 -2 118 -5 170 -5 66 0 88 -3 73 -10
-13 -4 -23 -10 -23 -12 0 -3 35 -5 77 -6 150 -3 79 -8 -209 -15 -346 -9 -496
-22 -273 -25 205 -2 408 -18 542 -42 65 -11 119 -22 120 -23 2 -1 -107 0 -241
2 -134 3 -301 1 -372 -4 l-129 -8 195 -7 c279 -10 503 -38 625 -78 31 -11 26
-10 -95 4 -104 13 -463 17 -548 6 -109 -13 -207 -43 -247 -75 l-28 -22 -61 32
c-95 50 -189 66 -394 68 -167 1 -403 -10 -447 -20 -16 -4 -17 -3 -5 5 8 5 38
14 65 19 28 6 95 19 151 31 55 11 148 23 207 27 59 4 107 11 107 17 0 6 -83 8
-219 6 -121 -2 -218 -3 -216 -1 9 9 229 52 314 61 51 6 96 12 98 15 7 7 -237
18 -320 14 -42 -1 -77 -1 -77 2 0 10 185 41 293 50 107 9 155 20 85 20 -20 0
-73 7 -119 16 -56 11 -114 15 -174 11 -88 -4 -89 -4 -50 10 34 12 241 40 325
44 14 0 -15 7 -64 15 -48 7 -95 19 -102 25 -9 8 -44 10 -102 7 -83 -4 -85 -4
-52 10 22 9 69 14 130 14 52 -1 120 2 150 6 l55 8 -104 13 c-94 12 -102 15
-80 26 13 7 53 16 89 19 36 4 72 12 80 17 17 12 -135 5 -267 -12 -46 -6 -88
-9 -94 -7 -21 7 263 80 331 86 45 4 59 7 45 13 -26 10 -202 10 -290 0 -38 -5
-71 -7 -73 -6 -8 7 146 47 248 66 177 32 177 34 -10 39 l-175 5 75 19 c41 10
127 26 190 35 l115 18 -80 8 c-44 4 -135 5 -202 2 -68 -4 -123 -5 -123 -3 0 8
182 48 300 65 95 15 185 19 376 20 l251 1 11 -37z m375 -2 c60 -16 111 -32
115 -35 5 -6 -259 4 -266 9 -7 6 22 55 32 55 6 0 60 -13 119 -29z m47 -110
l75 -18 -120 5 c-112 4 -134 10 -135 36 0 11 82 0 180 -23z m-102 -61 c7 0 10
-5 6 -11 -4 -7 0 -9 14 -5 11 4 32 4 47 0 43 -11 8 -24 -58 -22 -52 1 -57 3
-51 21 4 13 2 17 -5 13 -6 -4 -11 -2 -11 5 0 7 9 9 23 5 12 -3 28 -6 35 -6z
m0 -101 c-9 -6 -6 -9 12 -10 l25 -2 -25 -6 c-19 -4 -11 -7 30 -12 l55 -6 -67
-1 -68 -2 0 29 c0 25 3 28 26 23 19 -3 22 -7 12 -13z m61 -95 c17 -4 28 -11
24 -17 -4 -6 2 -8 15 -5 12 4 22 2 22 -3 0 -11 -34 -11 -107 -3 -35 5 -53 11
-53 20 0 15 45 19 99 8z m-9 -85 c12 -7 11 -8 -5 -9 -11 0 -37 -3 -57 -6 -33
-6 -36 -5 -31 14 4 17 11 20 41 15 21 -3 44 -9 52 -14z m-5 -74 c39 -13 39
-13 -50 -14 -49 -1 -108 -4 -130 -7 -52 -8 -36 11 20 25 56 13 113 12 160 -4z
m-1091 -685 c18 19 47 48 64 63 l30 29 1 -1651 c2 -1782 -1 -1690 53 -1794 69
-137 250 -217 427 -190 140 22 238 88 287 195 l29 63 5 335 c3 184 4 336 3
338 0 2 -6 -12 -12 -30 l-11 -33 -124 -23 -124 -24 -4 -201 c-4 -179 -7 -209
-27 -258 -23 -60 -95 -179 -108 -179 -15 0 -93 125 -115 185 l-23 60 -2 1603
c-1 881 1 1602 5 1602 3 0 37 -30 73 -66 l67 -66 65 68 65 69 2 -1255 c0 -690
2 -1255 4 -1257 2 -2 124 21 272 51 147 31 268 54 269 53 0 -1 -2 -227 -5
-502 -5 -491 -5 -501 -28 -565 -71 -198 -208 -325 -422 -391 -63 -20 -97 -23
-215 -23 -164 0 -229 14 -350 77 -145 76 -240 194 -284 357 -20 74 -21 98 -23
1762 l-3 1687 63 -62 63 -62 33 35z m1101 25 l63 70 2 -255 c0 -140 -2 -396
-6 -567 -7 -311 -7 -313 -29 -313 -11 0 -26 5 -33 12 -9 9 -12 9 -12 0 0 -8
-28 -12 -95 -12 l-95 0 0 567 0 567 71 -69 70 -70 64 70z m90 -1169 c74 -31
100 -138 47 -197 l-28 -31 -176 0 c-194 0 -215 5 -238 63 -26 61 8 135 75 165
43 19 274 19 320 0z m-77 -378 l11 -43 -2 37 c-3 36 -3 36 40 40 24 2 43 1 43
-2 0 -3 22 -127 49 -275 27 -149 51 -289 54 -312 l5 -43 -74 0 c-86 0 -74 -21
-103 190 -11 80 -27 195 -36 255 -8 61 -15 114 -15 118 0 4 -5 7 -12 7 -8 0
-10 -69 -5 -267 3 -148 8 -276 12 -285 6 -15 -1 -17 -65 -16 l-71 0 1 127 c2
214 0 295 -5 289 -6 -6 -48 -247 -62 -353 l-8 -60 -68 -3 c-77 -3 -74 -8 -53
95 8 37 29 167 46 288 17 121 33 228 36 238 5 15 20 17 138 17 l133 0 11 -42z
m-2608 -491 l0 -83 -47 -12 c-27 -7 -144 -42 -261 -78 -118 -36 -215 -64 -217
-62 -6 6 -9 55 -7 109 l2 46 108 31 c59 18 172 54 252 81 80 27 151 49 158 50
9 1 12 -22 12 -82z m-437 -1366 c287 -79 651 -235 747 -320 l45 -40 -65 23
c-36 13 -123 48 -195 78 -191 81 -410 152 -578 187 -165 35 -209 38 -227 16
-21 -25 -4 -48 30 -40 86 19 536 -112 819 -239 181 -81 351 -186 301 -186 -5
0 -85 33 -177 74 -320 141 -551 218 -815 272 -110 23 -140 26 -150 16 -24 -24
18 -43 177 -78 195 -44 389 -104 590 -185 168 -67 322 -148 317 -168 -1 -7 2
-10 7 -6 12 7 66 -19 77 -37 5 -7 -4 -5 -18 4 -15 10 -28 13 -30 9 -3 -10 -14
-5 -273 104 -280 119 -502 184 -757 224 -69 10 -139 26 -156 35 -67 34 -103
113 -87 188 28 127 139 145 418 69z m5287 27 c56 -39 74 -72 74 -133 -1 -66
-38 -129 -87 -150 -18 -7 -80 -20 -139 -29 -282 -41 -582 -139 -1043 -341 -49
-21 -75 -27 -75 -17 0 14 28 35 38 28 5 -3 20 1 35 9 14 7 28 11 31 7 3 -3 6
0 6 7 0 9 8 11 23 8 21 -6 21 -6 3 9 -26 19 -21 23 109 82 252 114 552 213
816 268 132 28 156 41 128 69 -12 12 -31 10 -129 -11 -244 -53 -502 -138 -812
-268 -152 -64 -204 -79 -196 -54 13 39 449 232 678 301 206 62 363 97 437 97
37 0 44 3 41 17 -6 33 -42 41 -121 27 -233 -41 -483 -119 -767 -240 -107 -45
-208 -86 -225 -90 -26 -6 -28 -5 -17 8 18 22 160 107 267 161 118 59 288 125
454 177 260 82 409 100 471 58z m-1399 -569 c-36 -138 -69 -204 -155 -302 -57
-66 -159 -139 -233 -167 -29 -11 -53 -18 -53 -15 0 3 39 47 86 97 83 90 154
197 154 232 0 18 -54 -22 -136 -101 -39 -38 -48 -41 -39 -12 5 15 4 19 -4 15
-8 -5 -8 0 0 18 7 14 16 23 22 19 6 -3 7 -1 3 6 -13 21 101 146 189 206 44 31
174 88 183 81 1 -2 -7 -36 -17 -77z m-2756 40 c114 -42 246 -166 299 -282 54
-115 51 -117 -42 -27 -111 107 -204 185 -180 150 10 -14 23 -34 29 -45 10 -16
7 -16 -15 4 -44 41 -29 2 16 -43 24 -22 60 -63 81 -91 21 -27 72 -85 114 -127
42 -43 73 -78 69 -78 -23 0 -146 67 -209 113 -118 88 -205 216 -238 352 -9 38
-20 78 -24 88 -7 16 -4 17 21 11 16 -4 52 -15 79 -25z m-110 -271 c15 -7 35
-28 45 -47 10 -20 37 -57 60 -83 l41 -47 -48 21 c-71 31 -158 101 -183 149
-10 17 -7 19 24 19 19 0 47 -5 61 -12z m2991 -17 c-9 -16 -30 -41 -48 -56 -37
-32 -156 -90 -165 -82 -3 4 8 21 24 40 16 18 39 50 52 70 23 38 58 54 119 56
l33 1 -15 -29z m-3778 -25 c81 -41 679 -227 1052 -327 514 -138 711 -216 900
-358 90 -68 209 -179 261 -244 l38 -48 18 28 c63 101 219 241 362 326 165 98
444 201 791 293 214 56 592 171 879 266 212 71 214 71 245 54 17 -9 40 -24 50
-31 19 -15 19 -16 -10 -46 -24 -26 -131 -118 -239 -207 -296 -244 -755 -523
-1145 -697 -58 -26 -142 -65 -188 -86 -45 -21 -85 -39 -87 -39 -6 0 -38 -14
-234 -105 -138 -64 -144 -65 -163 -49 -18 17 -17 19 39 44 32 14 85 37 118 50
33 13 69 31 80 41 11 9 130 67 265 128 538 245 825 407 1135 639 154 116 275
221 275 239 0 6 -90 -56 -160 -112 -196 -154 -425 -300 -707 -450 -192 -101
-656 -318 -738 -345 -22 -7 -79 -32 -127 -56 -73 -37 -97 -44 -144 -44 -32 0
-55 -3 -51 -6 3 -3 23 -6 44 -6 l38 -1 -54 -24 c-49 -22 -56 -22 -70 -9 -8 9
-13 17 -10 20 16 15 392 197 629 304 550 249 946 478 1151 666 78 71 72 68
-127 -66 -205 -137 -392 -243 -686 -389 -224 -110 -594 -279 -613 -279 -4 0
-57 -23 -117 -50 -60 -28 -114 -47 -120 -44 -6 4 -8 3 -5 -3 3 -5 -35 -28 -85
-51 -96 -44 -108 -48 -108 -32 0 15 77 63 89 55 7 -4 8 0 4 11 -5 13 -3 16 10
11 9 -3 16 -2 14 2 -4 14 102 93 114 85 7 -4 9 -3 6 3 -11 18 149 136 283 209
71 39 234 120 362 179 214 100 408 200 408 211 0 9 -58 -10 -155 -51 -336
-142 -875 -397 -875 -414 0 -4 -26 -25 -57 -46 -69 -45 -230 -168 -293 -224
l-45 -39 -45 40 c-25 22 -91 74 -147 115 -57 42 -103 77 -103 78 0 2 10 1 23
-2 121 -26 -724 387 -1063 519 -262 103 -41 -21 470 -262 274 -130 388 -198
360 -215 -9 -6 -11 -4 -5 5 5 9 2 10 -13 6 -13 -4 -56 11 -128 45 -60 28 -199
93 -309 144 -249 115 -402 191 -672 333 -116 62 -217 112 -225 112 -20 0 150
-111 301 -197 124 -70 438 -224 822 -402 119 -55 159 -79 172 -101 9 -15 17
-31 17 -34 0 -23 -774 342 -1035 489 -77 43 -219 131 -315 195 -206 138 -221
146 -155 86 231 -211 637 -443 1295 -739 151 -69 274 -128 273 -133 -1 -5 4
-15 10 -23 10 -12 9 -12 -10 -2 -13 6 -23 8 -23 4 0 -4 -4 -1 -10 7 -5 8 -12
11 -17 7 -9 -10 18 -28 31 -20 5 3 6 1 2 -5 -4 -7 -2 -12 5 -12 7 0 10 -2 7
-5 -7 -7 -340 146 -683 314 -368 181 -631 339 -911 550 -67 50 -125 91 -130
91 -20 0 102 -110 221 -200 322 -241 663 -434 1225 -691 180 -82 236 -112 238
-127 2 -11 -4 -22 -12 -25 -10 -4 -16 -1 -16 8 0 8 5 15 12 15 6 0 9 3 5 6 -3
3 -12 2 -19 -2 -19 -12 -41 -11 -56 4 -8 7 -18 10 -22 7 -18 -11 -685 317
-895 440 -289 169 -593 388 -797 573 l-67 61 47 35 c53 40 62 42 100 22z
m3272 -23 c-1 -5 -14 -24 -30 -43 l-30 -34 16 42 c10 23 23 42 31 42 7 0 13
-3 13 -7z m-3465 -154 c265 -231 556 -443 837 -612 409 -246 1011 -531 1327
-628 275 -85 455 -58 905 133 724 308 1370 706 1772 1090 45 43 88 78 96 78 8
0 22 -6 32 -13 16 -12 10 -21 -73 -99 -228 -218 -588 -481 -951 -695 -369
-218 -1019 -517 -1258 -578 -143 -37 -339 -37 -480 -1 -278 73 -902 363 -1352
629 -158 94 -437 278 -530 350 -119 93 -385 315 -419 351 l-34 35 24 10 c13 5
26 10 29 10 3 1 37 -26 75 -60z m2112 -793 c-1 -6 4 -10 12 -8 21 4 175 -124
166 -138 -5 -9 -156 68 -167 84 -4 6 -8 7 -8 3 0 -15 -70 63 -70 78 0 9 5 13
10 10 6 -3 10 -1 10 5 0 6 -7 13 -15 16 -8 4 -15 10 -15 16 0 5 18 -5 40 -23
21 -17 38 -37 37 -43z m-102 -85 c3 -5 1 -12 -5 -16 -6 -4 -8 -10 -5 -15 3 -5
2 -11 -3 -14 -4 -2 -9 4 -9 15 -1 10 4 19 10 19 7 0 6 4 -3 10 -9 6 -10 10 -3
10 6 0 14 -4 18 -9z m70 -34 c15 -12 16 -15 4 -22 -8 -5 -10 -4 -6 0 4 5 -3
15 -15 22 -13 7 -18 12 -12 13 5 0 18 -6 29 -13z m105 -53 c41 -21 48 -29 39
-40 -6 -8 -16 -14 -22 -14 -6 0 -2 7 9 16 16 13 16 15 2 10 -10 -3 -18 -1 -18
5 0 6 -4 7 -10 4 -5 -3 -10 -1 -10 5 0 7 -7 9 -16 6 -8 -3 -12 -2 -9 3 3 6 -3
14 -12 20 -37 22 0 10 47 -15z m-117 -61 c100 -45 105 -49 86 -68 -13 -14 -24
-11 -99 21 -87 38 -114 52 -70 39 22 -7 23 -6 11 9 -7 9 -10 16 -5 16 5 0 2 5
-6 10 -31 20 3 9 83 -27z"/>
<path d="M4990 8550 c0 -5 5 -10 11 -10 5 0 7 5 4 10 -3 6 -8 10 -11 10 -2 0
-4 -4 -4 -10z"/>
<path d="M5648 7993 c7 -3 16 -2 19 1 4 3 -2 6 -13 5 -11 0 -14 -3 -6 -6z"/>
<path d="M5568 5673 c6 -2 18 -2 25 0 6 3 1 5 -13 5 -14 0 -19 -2 -12 -5z"/>
<path d="M5693 5370 c4 -14 7 -31 7 -37 0 -7 4 -13 9 -13 6 0 6 12 1 31 -11
38 -26 55 -17 19z"/>
<path d="M5717 5265 c3 -22 7 -42 9 -44 8 -9 2 45 -6 64 -7 14 -8 8 -3 -20z"/>
<path d="M5730 5194 c0 -8 5 -12 10 -9 6 3 10 10 10 16 0 5 -4 9 -10 9 -5 0
-10 -7 -10 -16z"/>
<path d="M5745 5133 c3 -21 14 -69 24 -108 14 -57 18 -65 23 -43 3 15 2 25 -2
23 -4 -3 -10 10 -14 28 -3 17 -8 48 -12 67 -4 19 -6 43 -6 53 0 9 -4 17 -10
17 -6 0 -7 -14 -3 -37z"/>
<path d="M5750 4880 c-9 -6 -10 -10 -3 -10 6 0 15 5 18 10 8 12 4 12 -15 0z"/>
<path d="M3750 2976 c0 -2 8 -10 18 -17 15 -13 16 -12 3 4 -13 16 -21 21 -21
13z"/>
<path d="M3790 2946 c0 -2 8 -10 18 -17 15 -13 16 -12 3 4 -13 16 -21 21 -21
13z"/>
<path d="M4004 2825 c11 -8 24 -15 29 -15 4 0 5 -4 2 -10 -3 -5 -1 -10 4 -10
6 0 11 9 11 21 0 14 -5 19 -15 16 -8 -4 -17 -2 -20 3 -4 6 -12 10 -18 10 -7 0
-3 -7 7 -15z"/>
<path d="M4070 2760 c6 -11 12 -20 14 -20 2 0 2 9 -1 20 -3 11 -9 20 -15 20
-5 0 -4 -9 2 -20z"/>
<path d="M6769 2495 c-239 -130 -536 -280 -666 -339 -140 -63 -425 -202 -447
-219 -13 -10 -15 -16 -8 -21 7 -4 12 -1 12 6 0 10 2 10 8 0 8 -12 100 28 537
236 258 122 538 277 700 385 73 49 69 46 64 52 -3 2 -93 -43 -200 -100z"/>
<path d="M5460 1960 c-9 -6 -10 -10 -3 -10 6 0 15 5 18 10 8 12 4 12 -15 0z"/>
<path d="M5345 1621 c-6 -11 13 -26 22 -17 4 3 0 6 -8 6 -11 0 -11 2 1 10 9 6
10 10 3 10 -6 0 -14 -4 -18 -9z"/>
<path d="M5950 8236 c0 -2 7 -7 16 -10 8 -3 12 -2 9 4 -6 10 -25 14 -25 6z"/>
<path d="M6010 8226 c0 -2 8 -10 18 -17 15 -13 16 -12 3 4 -13 16 -21 21 -21
13z"/>
<path d="M2521 7309 c-76 -23 -121 -78 -121 -149 0 -77 48 -142 117 -156 l28
-6 -3 61 c-3 46 -1 61 10 61 19 -1 49 -26 41 -34 -4 -4 0 -4 9 -1 23 9 67 -41
81 -92 l11 -43 63 0 63 0 0 65 c0 132 -37 216 -119 270 -44 30 -126 41 -180
24z"/>
<path d="M2635 6960 c3 -5 11 -10 16 -10 6 0 7 5 4 10 -3 6 -11 10 -16 10 -6
0 -7 -4 -4 -10z"/>
<path d="M6240 6905 c0 -4 12 -23 28 -42 l27 -36 3 -829 c1 -543 6 -828 12
-828 6 0 65 9 133 19 114 19 402 61 412 61 3 0 5 333 5 740 0 585 3 740 13
740 15 0 126 -26 150 -35 21 -9 22 8 2 28 -21 22 -120 42 -438 92 -222 34
-283 47 -300 62 -27 25 -47 36 -47 28z"/>
<path d="M6368 6883 c6 -2 18 -2 25 0 6 3 1 5 -13 5 -14 0 -19 -2 -12 -5z"/>
<path d="M6443 6873 c9 -2 23 -2 30 0 6 3 -1 5 -18 5 -16 0 -22 -2 -12 -5z"/>
<path d="M6491 6866 c2 -2 31 -6 64 -9 39 -4 50 -3 30 2 -31 9 -102 14 -94 7z"/>
<path d="M3265 6774 c-71 -13 -145 -26 -162 -29 l-33 -6 0 -648 0 -648 -32 -7
c-17 -3 -29 -8 -26 -11 9 -10 124 26 193 60 95 47 139 85 172 153 l28 57 5
540 5 540 53 0 c54 0 68 8 30 19 -39 10 -98 5 -233 -20z"/>
<path d="M7086 6710 l29 -43 2 -291 c2 -160 4 -465 5 -678 l3 -388 -40 -9 -40
-9 42 -1 c67 -2 192 26 239 54 52 30 88 76 104 130 8 29 10 188 8 556 l-3 516
-30 49 c-38 60 -102 95 -225 122 -47 11 -93 23 -104 27 -15 7 -13 0 10 -35z"/>
<path d="M2590 5271 c-8 -6 -18 -7 -22 -5 -4 3 -8 -1 -8 -10 0 -13 4 -12 33 1
40 20 44 23 26 23 -8 0 -21 -4 -29 -9z"/>
<path d="M6870 5035 c0 -31 2 -31 -398 -85 -152 -21 -142 -22 -227 18 -5 3 5
-13 23 -35 l32 -41 0 -668 0 -669 -36 -23 c-20 -13 -34 -26 -31 -28 7 -7 69
25 222 116 72 42 168 99 215 126 46 27 100 64 120 84 63 63 63 62 70 630 4
364 9 525 18 550 15 42 15 50 2 50 -5 0 -10 -11 -10 -25z"/>
<path d="M3634 4901 c42 -46 45 -79 46 -468 0 -404 -7 -478 -54 -570 -13 -28
-41 -65 -62 -83 -33 -29 -42 -32 -81 -27 -25 2 -41 1 -36 -3 4 -4 89 -52 188
-108 99 -55 197 -110 218 -122 l38 -22 -3 588 c-3 588 -3 589 -26 646 -38 93
-116 159 -217 183 -29 6 -29 6 -11 -14z"/>
<path d="M2244 4504 c-71 -22 -141 -78 -178 -144 -28 -50 -31 -63 -31 -140 0
-76 3 -91 30 -139 56 -100 139 -153 253 -159 66 -4 79 -1 137 27 106 53 165
149 165 270 0 116 -71 226 -174 272 -60 26 -142 31 -202 13z m156 -201 c59
-53 48 -153 -20 -188 -46 -24 -85 -19 -124 15 -40 36 -52 76 -36 125 25 75
121 101 180 48z"/>
<path d="M7842 4509 c-59 -11 -139 -57 -173 -99 -64 -77 -86 -198 -53 -293 19
-57 92 -141 148 -169 24 -12 68 -23 106 -25 118 -9 226 51 285 158 27 48 30
63 30 139 0 69 -5 93 -23 127 -66 124 -191 188 -320 162z m134 -213 c48 -48
48 -101 0 -154 -30 -32 -40 -37 -79 -37 -34 0 -52 6 -71 24 -82 77 -35 199 78
201 30 0 45 -7 72 -34z"/>
</g>
</svg>
